<?xml version="1.0" standalone="no"?>
<!DOCTYPE svg PUBLIC "-//W3C//DTD SVG 20010904//EN"
 "http://www.w3.org/TR/2001/REC-SVG-20010904/DTD/svg10.dtd">
<svg version="1.0" xmlns="http://www.w3.org/2000/svg"
 width="500.000000pt" height="500.000000pt" viewBox="0 0 500.000000 500.000000"
 preserveAspectRatio="xMidYMid meet">

<g transform="translate(0.000000,500.000000) scale(0.100000,-0.100000)"
fill="#000000" stroke="none">
<path d="M2250 4631 c-276 -78 -374 -106 -420 -121 -14 -5 -54 -17 -90 -28
-36 -11 -112 -34 -170 -52 -165 -50 -591 -191 -637 -211 -53 -23 -57 -51 -11
-78 17 -11 160 -63 317 -115 157 -53 315 -105 350 -117 l64 -22 -6 -57 c-4
-31 -9 -64 -13 -74 -6 -16 -8 -16 -28 2 -63 58 -150 74 -216 40 -67 -34 -95
-91 -93 -188 1 -73 26 -164 59 -215 13 -20 11 -21 -94 -34 -142 -16 -233 -36
-243 -53 -11 -16 -11 -99 -1 -113 4 -6 18 -18 33 -27 22 -14 26 -26 36 -109
18 -153 63 -241 152 -302 l24 -16 -31 -68 c-168 -368 -143 -766 62 -991 44
-48 143 -123 178 -134 15 -5 -33 -214 -112 -493 -56 -195 -60 -214 -90 -385
-24 -138 -47 -356 -56 -538 l-6 -132 39 0 40 0 7 158 c4 86 8 166 8 177 0 11
5 56 11 100 6 44 10 84 9 88 -4 14 32 216 50 282 6 22 12 49 13 60 1 11 12 53
24 92 55 189 64 220 68 245 5 25 23 40 23 20 0 -5 73 -8 163 -7 152 2 168 4
254 33 138 46 241 103 318 174 16 16 41 39 55 52 14 12 50 30 80 40 56 17 69
22 130 50 51 23 70 41 70 65 0 26 -11 26 -88 2 -130 -42 -192 -54 -208 -40
-12 10 -15 10 -12 -1 4 -16 -48 -32 -84 -26 -15 3 -30 1 -33 -4 -11 -18 -63
-12 -68 8 -4 13 -5 11 -6 -5 -1 -23 -3 -23 -123 -22 -68 1 -112 4 -98 8 l25 7
-25 7 c-13 3 -29 2 -34 -3 -12 -12 -69 -14 -63 -3 3 5 -17 8 -45 9 -29 0 -53
6 -58 14 -4 7 -12 10 -18 6 -12 -7 -106 27 -97 36 3 3 -1 8 -10 12 -10 4 -14
2 -9 -5 4 -7 2 -9 -7 -5 -8 3 -22 9 -32 12 -10 4 -16 13 -13 20 3 9 0 11 -11
7 -9 -4 -14 -2 -10 3 3 6 -4 11 -15 11 -19 2 -67 46 -116 109 -24 31 -29 50
-10 38 7 -4 8 -3 4 5 -4 6 -11 9 -15 7 -4 -3 -15 14 -25 37 -10 23 -21 51 -26
62 -36 86 -49 351 -22 444 7 22 17 60 23 84 6 23 15 50 20 59 5 10 9 22 9 28
0 5 17 46 38 90 32 70 40 80 57 74 23 -8 84 -10 104 -4 8 3 30 23 49 45 80 91
338 334 349 330 7 -2 15 1 19 7 4 7 3 8 -4 4 -25 -15 -10 6 24 37 36 31 92 57
126 57 9 0 29 -5 45 -11 15 -7 37 -12 48 -13 22 -1 45 -39 45 -76 0 -14 9 -58
20 -98 11 -40 17 -79 14 -85 -4 -7 -4 -9 1 -5 4 4 24 -19 45 -50 20 -32 48
-65 63 -75 100 -65 162 -81 327 -81 141 0 203 13 268 56 24 15 48 26 53 22 5
-3 8 -2 7 3 -2 5 11 31 29 58 17 28 38 70 46 95 16 48 41 202 39 235 -1 15 1
16 7 6 5 -7 13 -11 18 -8 6 4 34 -2 64 -13 29 -11 61 -20 69 -20 9 0 22 -6 28
-12 7 -7 18 -13 25 -13 7 -1 31 -6 53 -13 l42 -12 40 -128 c44 -138 60 -195
98 -341 14 -53 30 -112 36 -131 5 -19 11 -44 13 -55 1 -11 7 -31 13 -45 5 -14
16 -45 22 -70 64 -228 130 -371 338 -733 12 -21 19 -43 16 -49 -4 -7 -2 -8 4
-4 11 6 16 -6 13 -26 0 -5 3 -8 8 -8 13 0 42 -60 35 -71 -3 -5 -1 -9 5 -9 12
0 42 -60 35 -71 -3 -5 -1 -9 4 -9 8 0 52 -92 52 -110 0 -6 7 -22 16 -35 12
-19 13 -25 3 -25 -8 0 -7 -4 4 -13 10 -6 18 -26 20 -44 1 -17 5 -29 10 -26 6
4 11 -21 10 -54 -1 -7 3 -10 8 -7 5 3 9 -4 9 -16 0 -12 5 -30 10 -40 6 -11 11
-37 13 -59 1 -21 5 -37 9 -35 4 3 7 -4 7 -13 0 -10 4 -38 11 -62 6 -24 8 -52
4 -63 -3 -11 -1 -24 5 -27 17 -11 31 -178 31 -375 0 -157 -2 -182 -17 -199
-10 -11 -12 -17 -6 -13 10 5 12 -8 9 -54 l-3 -60 37 0 38 0 9 78 c14 128 8
454 -11 592 -47 341 -150 621 -374 1014 -170 298 -238 454 -302 692 -23 85
-30 109 -53 194 -9 30 -30 109 -47 175 -17 66 -45 163 -62 215 -16 52 -31 122
-33 155 -2 37 -12 81 -27 114 l-25 55 48 59 c60 75 102 156 119 230 33 143
-66 256 -198 226 -24 -5 -57 -16 -72 -24 l-28 -15 -7 61 c-4 34 -3 65 2 70 10
10 369 129 389 129 12 0 14 -44 14 -246 l0 -247 -35 -38 c-38 -43 -44 -73 -20
-119 13 -26 13 -32 -5 -72 -24 -55 -40 -180 -43 -337 l-2 -123 28 -22 c39 -29
197 -31 241 -2 l29 18 -7 137 c-9 184 -22 267 -50 325 -22 44 -23 52 -10 70
28 40 12 112 -33 141 l-23 15 0 265 0 264 108 35 c146 47 142 45 142 72 0 16
-9 28 -27 38 -32 16 -417 164 -538 207 -44 15 -132 46 -195 69 -145 52 -711
240 -719 239 -3 0 -130 -35 -281 -78z m-765 -903 c14 2 36 -4 53 -17 38 -27
75 -88 60 -97 -7 -5 -8 -2 -3 7 5 8 4 11 0 6 -5 -4 -9 -16 -10 -27 -1 -16 1
-18 14 -8 9 6 5 0 -9 -14 l-25 -25 -44 39 c-47 41 -68 47 -77 23 -10 -24 3
-58 35 -91 30 -31 30 -32 10 -52 -10 -12 -19 -24 -19 -27 0 -4 -6 -13 -14 -21
-13 -12 -17 -10 -34 13 -34 50 -46 97 -47 174 0 61 4 81 19 97 18 20 58 33 64
21 1 -3 14 -4 27 -1z m2010 -29 c16 -15 20 -33 20 -78 -1 -76 -47 -172 -120
-247 -54 -55 -66 -78 -52 -101 9 -15 -2 -17 -21 -5 -7 5 -10 16 -6 25 3 10 1
17 -5 17 -6 0 -11 -7 -11 -15 0 -17 -2 -18 -24 -9 -9 3 -13 11 -9 17 3 6 1 7
-6 3 -18 -11 -63 2 -55 16 5 8 0 9 -16 5 -13 -3 -29 -2 -36 4 -7 6 -31 12 -54
14 -24 3 -48 9 -54 14 -6 6 -25 15 -41 20 -28 10 -29 10 -11 -4 19 -15 19 -15
-1 -15 -12 0 -28 6 -35 13 -7 7 -41 13 -78 13 -235 5 -348 3 -440 -7 -58 -6
-119 -12 -137 -12 -19 0 -29 -5 -26 -10 4 -6 -1 -8 -10 -4 -10 3 -17 2 -17 -2
0 -5 -11 -8 -24 -7 -16 2 -23 -1 -20 -9 8 -19 -28 -24 -129 -18 -51 3 -108 1
-127 -4 -30 -8 -42 -5 -82 17 -39 21 -46 29 -35 39 10 11 8 11 -12 1 -15 -8
-39 -10 -65 -5 -22 4 -81 9 -131 11 -49 3 -91 6 -92 8 -2 2 25 34 61 72 46 50
84 80 138 108 40 20 78 36 83 35 6 -1 21 2 35 8 46 18 237 36 322 30 101 -8
205 -22 278 -38 68 -14 124 -14 220 1 41 6 113 9 160 6 47 -2 104 -5 127 -5
23 0 57 -6 75 -14 18 -8 38 -12 45 -10 8 3 10 -7 7 -30 -7 -62 51 -76 80 -19
15 28 116 142 116 130 0 -4 12 4 26 17 30 27 84 49 84 34 0 -6 7 -3 16 6 20
20 60 13 89 -16z"/>
<path d="M1519 3609 c25 -15 37 -17 45 -9 8 8 6 9 -9 4 -18 -7 -19 -6 -5 12
13 17 13 18 0 7 -10 -8 -21 -9 -30 -3 -8 6 -19 10 -25 10 -5 0 5 -9 24 -21z"/>
<path d="M3327 3627 c-4 -12 0 -15 14 -12 11 2 19 -1 17 -6 -2 -6 -7 -10 -12
-9 -5 1 -13 -5 -18 -14 -5 -9 -13 -14 -18 -11 -5 3 -12 0 -16 -6 -5 -8 -3 -9
7 -4 8 5 5 -2 -6 -14 -18 -21 -20 -21 -32 -5 -7 10 -13 13 -13 7 0 -7 5 -15
10 -18 16 -10 12 -28 -4 -22 -11 4 -13 1 -9 -11 6 -15 5 -16 -13 -2 -17 14
-18 14 -6 -1 9 -12 10 -24 2 -44 -13 -35 -9 -67 10 -82 17 -13 40 0 40 24 0 8
5 11 12 7 7 -4 8 -3 4 4 -6 10 57 88 117 143 24 23 23 75 -3 82 -11 3 -18 2
-15 -3 3 -4 -2 -11 -11 -14 -8 -3 -13 -2 -9 3 3 5 -3 8 -12 7 -10 -2 -21 1
-24 6 -3 5 -9 3 -12 -5z"/>
<path d="M3058 3363 c7 -3 16 -2 19 1 4 3 -2 6 -13 5 -11 0 -14 -3 -6 -6z"/>
<path d="M3364 3009 c-4 -7 -3 -9 4 -5 5 3 13 0 15 -6 4 -9 6 -10 6 -1 1 17
-16 25 -25 12z"/>
<path d="M3315 2839 c-4 -5 5 -35 20 -65 21 -43 31 -54 51 -54 39 0 28 42 -25
103 -27 29 -36 33 -46 16z"/>
<path d="M3267 2583 c7 -40 31 -90 46 -96 7 -3 21 1 32 9 10 8 14 14 8 14 -6
0 -14 12 -17 26 -10 39 -36 74 -56 74 -13 0 -16 -6 -13 -27z"/>
<path d="M1440 2591 c-8 -6 -17 -8 -21 -5 -4 2 -10 0 -14 -6 -4 -6 -11 -7 -17
-4 -7 4 -8 2 -4 -5 4 -6 13 -8 19 -4 6 4 2 -6 -11 -21 -27 -35 -29 -87 -4
-109 24 -22 28 -21 59 3 31 24 59 26 71 4 5 -9 12 -15 16 -15 3 1 19 -5 35
-13 72 -38 67 66 -8 148 -14 16 -20 25 -12 21 9 -5 12 -4 8 2 -8 13 -98 16
-117 4z"/>
<path d="M1880 2590 c0 -3 -14 -14 -31 -24 -16 -10 -38 -34 -47 -54 -9 -21
-21 -40 -26 -43 -5 -4 1 -21 13 -38 25 -34 37 -32 94 15 31 26 53 32 41 12 -6
-10 -5 -10 8 0 12 10 20 9 41 -8 28 -23 69 -26 85 -7 6 6 12 28 14 47 6 64
-59 113 -142 108 -28 -2 -50 -5 -50 -8z"/>
<path d="M3449 2358 c0 -2 -3 -76 -5 -165 l-4 -163 25 0 c40 0 50 32 50 161 0
124 -12 169 -47 169 -10 0 -18 -1 -19 -2z"/>
<path d="M3200 2330 c-13 -8 -11 -17 15 -65 29 -55 65 -75 65 -37 0 15 -54
112 -62 112 -2 0 -10 -5 -18 -10z"/>
<path d="M1667 2263 c-4 -3 -7 -81 -7 -173 0 -149 -2 -169 -18 -183 -10 -10
-22 -14 -25 -10 -4 3 -7 1 -7 -5 0 -13 -51 -42 -75 -42 -9 0 -14 4 -11 9 3 5
-15 4 -41 -1 -39 -9 -48 -8 -59 6 -17 23 -65 5 -59 -22 10 -55 56 -82 137 -82
58 0 123 23 169 60 l37 29 18 -20 c22 -25 86 -55 145 -68 57 -13 182 -13 238
0 34 8 46 7 53 -3 7 -10 9 -10 6 2 -3 9 12 23 41 38 99 52 171 152 171 238 0
81 -58 86 -79 6 -15 -61 -48 -115 -63 -106 -6 4 -8 3 -5 -3 14 -22 -106 -90
-143 -80 -11 3 -20 1 -20 -5 0 -7 -28 -8 -77 -4 -43 4 -90 6 -105 7 -15 0 -30
4 -33 9 -4 6 -14 10 -24 10 -10 0 -35 15 -55 33 l-38 32 -6 100 c-4 55 -7 123
-7 152 0 28 -4 49 -9 45 -5 -3 -7 2 -3 11 7 20 -30 37 -46 20z"/>
<path d="M3281 2111 c-8 -5 -9 -11 -3 -15 5 -3 12 1 16 9 6 17 6 18 -13 6z"/>
<path d="M3375 2110 c-4 -6 -11 -7 -17 -4 -6 4 -8 2 -5 -4 10 -14 -3 -43 -15
-36 -6 4 -8 -1 -4 -13 7 -23 -74 -159 -93 -155 -7 1 -10 -2 -7 -7 8 -12 -83
-92 -97 -84 -5 3 -7 2 -4 -4 3 -5 -11 -19 -32 -30 -34 -18 -39 -19 -49 -4 -10
15 -11 14 -6 -1 4 -10 -2 -21 -15 -28 -12 -6 -21 -8 -21 -5 0 3 -11 -2 -25
-11 -15 -10 -25 -12 -25 -5 0 6 -5 11 -11 11 -5 0 -8 -4 -5 -9 7 -10 -22 -24
-33 -16 -5 2 -19 -7 -32 -21 l-24 -26 24 -19 c18 -15 32 -18 50 -13 14 4 38 8
53 9 15 1 33 6 40 12 7 6 21 9 31 8 10 -2 14 1 10 8 -4 7 0 8 13 3 10 -4 15
-4 11 0 -10 10 62 46 76 38 7 -4 9 -4 5 1 -4 4 20 27 52 52 127 95 190 196
190 303 0 46 -3 60 -14 60 -8 0 -18 -5 -21 -10z"/>
<path d="M3162 1854 c10 -10 20 -16 22 -13 3 3 -5 11 -17 18 -21 13 -21 12 -5
-5z"/>
<path d="M2280 1826 c0 -2 8 -10 18 -17 15 -13 16 -12 3 4 -13 16 -21 21 -21
13z"/>
<path d="M2967 1749 c7 -7 15 -10 18 -7 3 3 -2 9 -12 12 -14 6 -15 5 -6 -5z"/>
<path d="M3670 1662 c0 -18 45 -91 64 -104 39 -27 48 16 14 65 -37 56 -78 76
-78 39z"/>
<path d="M1600 1611 c0 -6 4 -13 10 -16 6 -3 7 1 4 9 -7 18 -14 21 -14 7z"/>
<path d="M2308 1603 c7 -3 16 -2 19 1 4 3 -2 6 -13 5 -11 0 -14 -3 -6 -6z"/>
<path d="M1690 1579 c0 -5 5 -7 10 -4 6 3 10 8 10 11 0 2 -4 4 -10 4 -5 0 -10
-5 -10 -11z"/>
<path d="M3851 1451 c-11 -7 -9 -19 12 -64 25 -54 57 -84 78 -72 13 9 2 40
-35 97 -33 51 -34 52 -55 39z"/>
<path d="M3660 1356 c0 -25 38 -106 55 -118 6 -4 16 -1 24 7 12 11 11 20 -3
57 -30 73 -76 106 -76 54z"/>
<path d="M3933 1123 c-20 -7 -15 -34 17 -90 24 -42 36 -53 55 -53 32 0 32 10
-7 80 -34 61 -44 70 -65 63z"/>
<path d="M1864 1019 c-32 -51 -37 -94 -10 -94 11 0 27 17 42 45 45 85 18 127
-32 49z"/>
<path d="M2835 972 c-12 -8 -31 -47 -40 -79 -4 -13 -11 -23 -16 -23 -6 0 -8
-4 -5 -9 7 -11 -25 -142 -33 -137 -3 2 -7 -12 -8 -32 -3 -60 -14 -112 -25
-112 -6 0 -8 -7 -5 -15 4 -8 2 -17 -4 -21 -6 -3 -8 -13 -4 -21 7 -19 -4 -84
-14 -79 -3 2 -6 -18 -7 -44 0 -26 -4 -56 -8 -66 -4 -11 -10 -43 -12 -73 -2
-30 -7 -57 -11 -60 -5 -3 -9 -31 -11 -61 -2 -30 -10 -62 -18 -71 -16 -18 -19
-33 -4 -24 6 4 10 -5 10 -19 0 -24 3 -26 44 -26 l44 0 5 53 c11 109 30 226 36
223 3 -2 7 19 8 48 1 47 15 119 88 475 15 68 25 135 23 149 -3 27 -16 37 -33
24z"/>
<path d="M3754 967 c-4 -13 31 -102 54 -135 11 -17 42 -5 42 17 0 9 -13 41
-28 71 -27 54 -57 75 -68 47z"/>
<path d="M2183 909 c-12 -59 -7 -89 13 -89 18 0 33 39 37 93 2 36 -1 42 -18
45 -18 2 -23 -5 -32 -49z"/>
<path d="M2006 868 c-32 -105 -31 -138 3 -138 26 0 28 5 32 80 3 55 1 65 -14
68 -9 2 -19 -2 -21 -10z"/>
<path d="M1613 858 c-29 -45 -30 -66 -30 -419 0 -200 2 -381 5 -401 5 -37 5
-38 49 -38 l44 0 -6 78 c-3 42 -8 229 -11 416 -3 197 -9 346 -15 357 -11 22
-24 24 -36 7z"/>
<path d="M3533 858 c-6 -7 -13 -33 -16 -57 -3 -24 -9 -47 -14 -50 -4 -3 -9
-30 -9 -58 -1 -29 -5 -61 -9 -70 -4 -10 -9 -36 -10 -57 -2 -21 -7 -42 -12 -45
-4 -3 -8 -14 -9 -23 -2 -49 -5 -59 -14 -53 -6 3 -7 -1 -4 -10 7 -18 -25 -143
-39 -152 -6 -4 -7 -1 -2 7 6 9 4 11 -4 5 -9 -5 -10 -10 -2 -18 14 -14 14 -30
1 -22 -5 3 -7 0 -4 -8 3 -8 -2 -34 -10 -58 -9 -24 -16 -51 -16 -61 0 -9 -11
-25 -25 -35 -19 -14 -22 -21 -14 -33 9 -12 10 -11 4 5 -5 16 -4 17 6 8 9 -9 8
-18 -5 -38 -9 -14 -21 -23 -26 -20 -6 4 -10 2 -10 -3 0 -5 27 -10 59 -11 l59
-2 21 68 c12 38 26 86 32 108 6 22 15 51 19 65 16 52 41 148 59 230 5 25 15
66 20 92 15 63 26 248 17 282 -7 28 -27 34 -43 14z"/>
<path d="M4065 758 c10 -60 32 -100 53 -96 19 4 19 49 1 106 -8 25 -16 32 -36
32 -24 0 -24 -2 -18 -42z"/>
<path d="M3895 659 c-22 -34 35 -163 63 -145 16 10 15 34 -4 89 -16 48 -47 77
-59 56z"/>
<path d="M1849 633 c-3 -100 10 -144 38 -122 10 9 13 31 11 78 -3 60 -5 66
-25 69 -19 3 -23 -2 -24 -25z"/>
<path d="M2177 588 c-3 -18 -2 -53 1 -78 6 -36 11 -45 27 -45 23 0 31 42 20
112 -5 33 -11 43 -24 43 -13 0 -20 -10 -24 -32z"/>
</g>
</svg>
